<?xml version="1.0" encoding="utf-8"?>
<!-- Generator: Adobe Illustrator 25.1.0, SVG Export Plug-In . SVG Version: 6.00 Build 0)  -->
<svg version="1.1" id="Layer_1" xmlns="http://www.w3.org/2000/svg" xmlns:xlink="http://www.w3.org/1999/xlink" x="0px" y="0px"
	 viewBox="0 0 1000 1000" style="enable-background:new 0 0 1000 1000;" xml:space="preserve">
<style type="text/css">
	.st0{fill:#0C54A0;}
</style>
<path class="st0" d="M500.3,0C225.2,0,1.4,224.3,1.4,499.8s223.8,499.8,498.9,499.8s498.9-224.3,498.9-499.8
	C999.2,224.1,775.4,0,500.3,0z M500.3,980.2c-264.4,0-479.4-215.5-479.4-480.4s215-480.4,479.4-480.4S979.7,235,979.7,499.8
	S764.9,980.2,500.3,980.2z"/>
<path class="st0" d="M704.6,638l-50.1,161.2l-475.4-0.7l0.2-9.7l21.1-0.2c19.2-0.2,26.3-0.7,41.3-12.6s21.8-30.6,21.8-52V257.5
	c0-25.6-12.1-41.5-28.7-51.5S202,194.4,179,193.9v-13.1h269.6V196c-22.3,0.5-54.1-1.2-71.2,8.5c-17.3,10-28,27.8-27.8,54.1
	l4.3,474.4c0.2,19.5,5,22.5,12.8,25.9c4.7,1.9,17.1,3.8,35.8,4l167.8,0.2c31.6,0,59.8-29,70-39.9c10.7-11.2,46.5-67.2,57.4-88.1
	L704.6,638z"/>
<path class="st0" d="M620.6,646.5c0,14-4,27.8-12.3,40.8s-20.9,23.7-37.7,32.3c-16.9,8.3-37.7,12.6-62.4,12.6
	c-15.7,0-29.4-1.4-41.5-4.3c-12.1-2.8-16.6-4.5-29.2-9.3c-5-1.9-14-2.8-15.9-2.8c-3.6,0-9,3.1-10.2,5.5c-1.2,2.1-0.9,7.8-2.6,15.4
	l-4.7,0.7L403,636.3h4.7c6.2,24.2,18.5,55.1,36.3,67.4c17.8,12.3,39.4,18.7,65,18.7c19.2,0,32-1.2,43.2-8.1
	c11.2-6.9,17.1-16.6,19.9-26.6c2.8-9.5,3.1-29.4,1.9-39.6c-1.4-12.3-10.9-25.4-24-37.3c-12.8-11.6-21.1-15.2-47.5-27.5
	c-18.3-8.5-31.3-17.6-40.1-22.3c-3.1-1.7-6.2-3.3-9.3-5c0,0-17.3-9.7-30.9-21.6c-14.2-12.6-22.5-33-22.5-56c0-14,3.3-21.8,10.9-34.9
	c7.4-13.1,18.7-24,33.7-32.3s33.7-12.6,55.8-12.6c14,0,26.3,1.4,37,4.3c10.7,2.8,14.7,4.5,26.1,9.3c4.5,1.9,11.2,2.6,12.8,2.6
	c3.3,0,9.5-2.8,10.4-5.2c0.9-2.1,1.7-6.2,2.1-13.8h8.3L597,504l-10.7,0.2c-5.5-24.2-14.2-61.2-30.1-73.6
	c-15.9-12.3-34.4-22.1-57.2-22.1c-17.1,0-31.8,8.1-41.8,14.7c-10,6.9-12.1,10-14.7,19.7c-2.6,9.5-5.5,29.7-1.7,39.6
	c4.5,11.4,15.2,21.8,26.8,33.7c11.4,11.9,21.1,13.5,44.4,26.1c17.8,9.7,24.7,11.4,27.5,13.3c24,12.1,43.2,24,57.2,36.1
	C613,605.2,620.6,623.5,620.6,646.5z"/>
<path class="st0" d="M859.6,768.3l-9.3,31.8H690.6V798h3.6c5.7,0,11.2-1.7,16.6-5.2s8.1-9.3,8.1-17.1V623.3c0-6.2-1.9-11.6-5.5-16.1
	c-3.8-4.5-10.2-6.9-19.5-6.9h-3.6v-2.4H850v31.8h-2.6c0-17.1-15-25.6-45.1-25.6h-55.8V696h49.1c9.7,0,18.3-1.2,26.1-3.6
	c7.6-2.4,12.1-7.8,13.1-16.4h2.6v45.8H835c-1.2-5.2-3.1-9.3-6.2-12.1c-3.1-2.8-5.9-4.7-9-5.7c-3.1-0.9-5.7-1.4-7.8-1.4
	c-4.3-0.5-9-0.9-13.8-0.9h-51.5v71.9c0,5.5,1.4,10,4,14s9,5.9,19,5.9h39.9c9.5,0,17.6-0.9,23.7-3.1c6.2-2.1,11.2-5,14.7-8.8
	s6.6-8.3,9-13.5h2.4v0.2H859.6z"/>
</svg>
